<svg width="15.361816" height="26.147461" viewBox="0 0 15.3618 26.1475" fill="none" xmlns="http://www.w3.org/2000/svg" xmlns:xlink="http://www.w3.org/1999/xlink">
	<desc>
			Created with Pixso.
	</desc>
	<defs>
		<linearGradient x1="1.627586" y1="-1.599030" x2="18.433144" y2="16.449047" id="paint_linear_36_4_0" gradientUnits="userSpaceOnUse">
			<stop stop-color="#C54A92"/>
			<stop offset="1.000000" stop-color="#2E62EB"/>
		</linearGradient>
		<linearGradient x1="5.389042" y1="23.438671" x2="8.861543" y2="26.280117" id="paint_linear_36_5_0" gradientUnits="userSpaceOnUse">
			<stop stop-color="#C54A92"/>
			<stop offset="1.000000" stop-color="#2E62EB"/>
		</linearGradient>
		<linearGradient x1="3.827625" y1="17.270044" x2="9.659677" y2="24.688969" id="paint_linear_36_8_0" gradientUnits="userSpaceOnUse">
			<stop stop-color="#C54A92"/>
			<stop offset="1.000000" stop-color="#2E62EB"/>
		</linearGradient>
	</defs>
	<path id="Vector" d="M15.11 8.28C15.11 13.02 11.73 13.75 11.73 18.17C11.73 20.45 9.62 20.64 8.01 20.64C6.63 20.64 3.56 20.07 3.56 18.17C3.56 13.75 0.25 13.02 0.25 8.28C0.25 3.84 3.82 0.25 7.73 0.25C11.65 0.25 15.11 3.84 15.11 8.28Z" fill="url(#paint_linear_36_4_0)" fill-opacity="1.000000" fill-rule="nonzero"/>
	<path id="Vector" d="M11.73 18.17C11.73 20.45 9.62 20.64 8.01 20.64C6.63 20.64 3.56 20.07 3.56 18.17C3.56 13.75 0.25 13.02 0.25 8.28C0.25 3.84 3.82 0.25 7.73 0.25C11.65 0.25 15.11 3.84 15.11 8.28C15.11 13.02 11.73 13.75 11.73 18.17Z" stroke="#FFFFFF" stroke-opacity="1.000000" stroke-width="0.500000"/>
	<path id="Vector" d="M10.49 24.05C10.49 24.66 8.98 25.89 7.68 25.89C6.37 25.89 4.86 24.66 4.86 24.05C4.86 23.44 6.37 23.69 7.68 23.69C8.98 23.69 10.49 23.44 10.49 24.05Z" fill="url(#paint_linear_36_5_0)" fill-opacity="1.000000" fill-rule="nonzero"/>
	<path id="Vector" d="M7.68 25.89C6.37 25.89 4.86 24.66 4.86 24.05C4.86 23.44 6.37 23.69 7.68 23.69C8.98 23.69 10.49 23.44 10.49 24.05C10.49 24.66 8.98 25.89 7.68 25.89Z" stroke="#FFFFFF" stroke-opacity="1.000000" stroke-width="0.500000"/>
	<path id="Vector" d="M10.85 7.71C10.79 7.65 10.72 7.59 10.64 7.55C10.55 7.52 10.47 7.5 10.38 7.5C10.29 7.5 10.2 7.52 10.12 7.55C10.04 7.59 9.96 7.65 9.9 7.71L7.67 10.14L5.45 7.71C5.39 7.65 5.31 7.59 5.23 7.56C5.15 7.52 5.06 7.5 4.97 7.5C4.88 7.5 4.8 7.52 4.71 7.56C4.63 7.59 4.56 7.65 4.49 7.71C4.43 7.78 4.38 7.86 4.35 7.95C4.31 8.04 4.3 8.14 4.3 8.23C4.3 8.33 4.31 8.43 4.35 8.52C4.38 8.61 4.43 8.69 4.49 8.76L7 11.48L7 19.27C7 19.47 7.07 19.65 7.2 19.79C7.32 19.93 7.5 20.01 7.67 20.01C7.85 20.01 8.03 19.93 8.15 19.79C8.28 19.65 8.35 19.47 8.35 19.27L8.35 11.48L10.85 8.76C10.92 8.69 10.97 8.61 11 8.52C11.03 8.43 11.05 8.33 11.05 8.23C11.05 8.14 11.03 8.04 11 7.95C10.97 7.86 10.92 7.78 10.85 7.71Z" fill="#FFFFFF" fill-opacity="1.000000" fill-rule="nonzero"/>
	<path id="Vector" d="M12.29 22.14C12.29 22.41 12.15 22.66 11.9 22.85C11.65 23.04 11.31 23.14 10.96 23.14L5.62 23.14C5.27 23.14 4.93 23.04 4.68 22.85C4.43 22.66 4.29 22.41 4.29 22.14L4.29 19.14L12.29 19.14L12.29 22.14Z" fill="#09010E" fill-opacity="1.000000" fill-rule="nonzero"/>
	<path id="Vector" d="M3.62 23.68C3.45 23.68 3.29 23.61 3.16 23.49C3.04 23.36 2.96 23.19 2.95 23.01C2.93 22.83 2.98 22.64 3.09 22.5C3.19 22.35 3.34 22.25 3.51 22.22L11.62 20.75C11.7 20.74 11.79 20.74 11.88 20.76C11.97 20.78 12.05 20.82 12.12 20.88C12.19 20.93 12.25 21.01 12.3 21.09C12.35 21.17 12.38 21.26 12.39 21.36C12.41 21.45 12.4 21.55 12.38 21.64C12.36 21.74 12.33 21.83 12.28 21.91C12.22 21.98 12.16 22.05 12.08 22.1C12.01 22.15 11.92 22.19 11.84 22.2L3.73 23.67C3.69 23.68 3.66 23.68 3.62 23.68ZM3.62 20.74C3.45 20.74 3.29 20.67 3.16 20.55C3.04 20.42 2.96 20.25 2.95 20.07C2.93 19.88 2.98 19.7 3.09 19.55C3.19 19.41 3.34 19.31 3.51 19.28L11.62 17.81C11.7 17.79 11.79 17.8 11.88 17.82C11.97 17.84 12.05 17.88 12.12 17.94C12.19 17.99 12.25 18.06 12.3 18.14C12.35 18.23 12.38 18.32 12.39 18.41C12.41 18.51 12.4 18.61 12.38 18.7C12.36 18.79 12.33 18.88 12.28 18.96C12.22 19.04 12.16 19.11 12.08 19.16C12.01 19.21 11.92 19.24 11.84 19.26L3.73 20.73C3.69 20.74 3.66 20.74 3.62 20.74Z" fill="url(#paint_linear_36_8_0)" fill-opacity="1.000000" fill-rule="nonzero"/>
	<path id="Vector" d="M3.16 23.49C3.04 23.36 2.96 23.19 2.95 23.01C2.93 22.83 2.98 22.64 3.09 22.5C3.19 22.35 3.34 22.25 3.51 22.22L11.62 20.75C11.7 20.74 11.79 20.74 11.88 20.76C11.97 20.78 12.05 20.82 12.12 20.88C12.19 20.93 12.25 21.01 12.3 21.09C12.35 21.17 12.38 21.26 12.39 21.36C12.41 21.45 12.4 21.55 12.38 21.64C12.36 21.74 12.33 21.83 12.28 21.91C12.22 21.98 12.16 22.05 12.08 22.1C12.01 22.15 11.92 22.19 11.84 22.2L3.73 23.67C3.69 23.68 3.66 23.68 3.62 23.68C3.45 23.68 3.29 23.61 3.16 23.49ZM3.16 20.55C3.04 20.42 2.96 20.25 2.95 20.07C2.93 19.88 2.98 19.7 3.09 19.55C3.19 19.41 3.34 19.31 3.51 19.28L11.62 17.81C11.7 17.79 11.79 17.8 11.88 17.82C11.97 17.84 12.05 17.88 12.12 17.94C12.19 17.99 12.25 18.06 12.3 18.14C12.35 18.23 12.38 18.32 12.39 18.41C12.41 18.51 12.4 18.61 12.38 18.7C12.36 18.79 12.33 18.88 12.28 18.96C12.22 19.04 12.16 19.11 12.08 19.16C12.01 19.21 11.92 19.24 11.84 19.26L3.73 20.73C3.69 20.74 3.66 20.74 3.62 20.74C3.45 20.74 3.29 20.67 3.16 20.55Z" stroke="#FFFFFF" stroke-opacity="1.000000" stroke-width="0.500000"/>
</svg>
