<svg width="29.682617" height="19.144775" viewBox="0 0 29.6826 19.1448" fill="none" xmlns="http://www.w3.org/2000/svg" xmlns:xlink="http://www.w3.org/1999/xlink">
	<desc>
			Created with Pixso.
	</desc>
	<defs>
		<linearGradient x1="2.955074" y1="-1.440434" x2="35.955074" y2="15.059578" id="paint_linear_17_144_0" gradientUnits="userSpaceOnUse">
			<stop stop-color="#C54A92"/>
			<stop offset="1.000000" stop-color="#2E62EB"/>
		</linearGradient>
	</defs>
	<path id="Vector" d="M20.07 0.25L16.15 0.25C15.79 0.25 15.43 0.39 15.16 0.65L10.68 5.02C10.68 5.03 10.67 5.04 10.67 5.04C9.91 5.8 9.93 7.01 10.57 7.76C11.15 8.43 12.37 8.61 13.13 7.89C13.14 7.88 13.14 7.88 13.15 7.88L16.79 4.33C17.09 4.04 17.55 4.06 17.82 4.38C18.1 4.69 18.07 5.18 17.78 5.47L16.59 6.63L23.23 12.37C23.36 12.49 23.48 12.61 23.59 12.74L23.59 3.35L21.1 0.7C20.83 0.41 20.45 0.25 20.07 0.25ZM25.05 3.36L25.05 14.23C25.05 15.09 25.7 15.78 26.51 15.78L29.43 15.78L29.43 3.36L25.05 3.36ZM27.24 14.23C26.84 14.23 26.51 13.88 26.51 13.45C26.51 13.02 26.84 12.68 27.24 12.68C27.64 12.68 27.97 13.02 27.97 13.45C27.97 13.88 27.64 14.23 27.24 14.23ZM0.25 15.78L3.16 15.78C3.97 15.78 4.62 15.08 4.62 14.22L4.62 3.36L0.25 3.36L0.25 15.78ZM2.43 12.68C2.83 12.68 3.16 13.02 3.16 13.45C3.16 13.88 2.83 14.23 2.43 14.23C2.03 14.23 1.7 13.88 1.7 13.45C1.7 13.02 2.03 12.68 2.43 12.68ZM22.31 13.58L15.5 7.7L14.13 9.03C12.78 10.35 10.71 10.22 9.5 8.82C8.27 7.39 8.37 5.18 9.7 3.88L13.43 0.25L9.61 0.25C9.22 0.25 8.85 0.41 8.58 0.7L6.08 3.35L6.08 14.22L6.92 14.22L11.04 18.19C12.29 19.28 14.13 19.07 15.15 17.74L15.16 17.73L15.97 18.48C16.7 19.12 17.77 18.99 18.36 18.22L19.79 16.35L20.03 16.56C20.66 17.1 21.58 17 22.09 16.33L22.52 15.77C23.03 15.1 22.93 14.12 22.31 13.58Z" fill="url(#paint_linear_17_144_0)" fill-opacity="1.000000" fill-rule="nonzero"/>
	<path id="Vector" d="M16.15 0.25C15.79 0.25 15.43 0.39 15.16 0.65L10.68 5.02C10.68 5.03 10.67 5.04 10.67 5.04C9.91 5.8 9.93 7.01 10.57 7.76C11.15 8.43 12.37 8.61 13.13 7.89C13.14 7.88 13.14 7.88 13.15 7.88L16.79 4.33C17.09 4.04 17.55 4.06 17.82 4.38C18.1 4.69 18.07 5.18 17.78 5.47L16.59 6.63L23.23 12.37C23.36 12.49 23.48 12.61 23.59 12.74L23.59 3.35L21.1 0.7C20.83 0.41 20.45 0.25 20.07 0.25L16.15 0.25ZM25.05 14.23C25.05 15.09 25.7 15.78 26.51 15.78L29.43 15.78L29.43 3.36L25.05 3.36L25.05 14.23ZM26.51 13.45C26.51 13.02 26.84 12.68 27.24 12.68C27.64 12.68 27.97 13.02 27.97 13.45C27.97 13.88 27.64 14.23 27.24 14.23C26.84 14.23 26.51 13.88 26.51 13.45ZM3.16 15.78C3.97 15.78 4.62 15.08 4.62 14.22L4.62 3.36L0.25 3.36L0.25 15.78L3.16 15.78ZM3.16 13.45C3.16 13.88 2.83 14.23 2.43 14.23C2.03 14.23 1.7 13.88 1.7 13.45C1.7 13.02 2.03 12.68 2.43 12.68C2.83 12.68 3.16 13.02 3.16 13.45ZM15.5 7.7L14.13 9.03C12.78 10.35 10.71 10.22 9.5 8.82C8.27 7.39 8.37 5.18 9.7 3.88L13.43 0.25L9.61 0.25C9.22 0.25 8.85 0.41 8.58 0.7L6.08 3.35L6.08 14.22L6.92 14.22L11.04 18.19C12.29 19.28 14.13 19.07 15.15 17.74L15.16 17.73L15.97 18.48C16.7 19.12 17.77 18.99 18.36 18.22L19.79 16.35L20.03 16.56C20.66 17.1 21.58 17 22.09 16.33L22.52 15.77C23.03 15.1 22.93 14.12 22.31 13.58L15.5 7.7Z" stroke="#FFFFFF" stroke-opacity="1.000000" stroke-width="0.500000"/>
</svg>
