<svg width="22.500000" height="20.024292" viewBox="0 0 22.5 20.0243" fill="none" xmlns="http://www.w3.org/2000/svg" xmlns:xlink="http://www.w3.org/1999/xlink">
	<desc>
			Created with Pixso.
	</desc>
	<defs>
		<linearGradient x1="1.973333" y1="-0.502890" x2="22.996733" y2="15.950211" id="paint_linear_35_12_0" gradientUnits="userSpaceOnUse">
			<stop stop-color="#C54A92"/>
			<stop offset="1.000000" stop-color="#2E62EB"/>
		</linearGradient>
		<linearGradient x1="6.621640" y1="1.162781" x2="23.309753" y2="11.779459" id="paint_linear_35_15_0" gradientUnits="userSpaceOnUse">
			<stop stop-color="#C54A92"/>
			<stop offset="1.000000" stop-color="#2E62EB"/>
		</linearGradient>
	</defs>
	<mask id="mask_35_12" fill="white">
		<path id="Exclude" d="M3.34863 1.18274L15.7432 1.18274C16.123 1.18274 16.4873 1.25122 16.8237 1.37634C16.8096 1.3717 16.8018 1.36951 16.8018 1.36951C14.25 3.74988 12.7939 5.66089 10.75 7.74988L9.27686 5.99646C8.16992 4.7262 6.25342 4.60327 4.99658 5.72192C3.73926 6.84058 3.61768 8.7771 4.72461 10.0475L8.8252 14.7418C9.40283 15.4048 10.2358 15.7836 11.1099 15.7811C11.9839 15.7787 12.8145 15.395 13.3887 14.7288L18.8413 8.46436L18.8413 4.43616C18.8413 3.80615 18.7095 3.29834 18.5132 2.89111C18.7231 3.3092 18.8413 3.78149 18.8413 4.28137L18.8413 16.6757C18.8413 18.387 17.4541 19.7743 15.7432 19.7743L3.34863 19.7743C1.63721 19.7743 0.25 18.387 0.25 16.6757L0.25 4.28137C0.25 2.57007 1.63721 1.18274 3.34863 1.18274ZM18.5132 2.89111C17.9834 1.79431 16.9839 1.42883 16.8237 1.37634C17.5596 1.65027 18.1631 2.1958 18.5132 2.89111Z" clip-rule="evenodd" fill="" fill-opacity="1.000000" fill-rule="evenodd"/>
	</mask>
	<path id="Exclude" d="M3.34863 1.18274L15.7432 1.18274C16.123 1.18274 16.4873 1.25122 16.8237 1.37634C16.8096 1.3717 16.8018 1.36951 16.8018 1.36951C14.25 3.74988 12.7939 5.66089 10.75 7.74988L9.27686 5.99646C8.16992 4.7262 6.25342 4.60327 4.99658 5.72192C3.73926 6.84058 3.61768 8.7771 4.72461 10.0475L8.8252 14.7418C9.40283 15.4048 10.2358 15.7836 11.1099 15.7811C11.9839 15.7787 12.8145 15.395 13.3887 14.7288L18.8413 8.46436L18.8413 4.43616C18.8413 3.80615 18.7095 3.29834 18.5132 2.89111C18.7231 3.3092 18.8413 3.78149 18.8413 4.28137L18.8413 16.6757C18.8413 18.387 17.4541 19.7743 15.7432 19.7743L3.34863 19.7743C1.63721 19.7743 0.25 18.387 0.25 16.6757L0.25 4.28137C0.25 2.57007 1.63721 1.18274 3.34863 1.18274ZM18.5132 2.89111C17.9834 1.79431 16.9839 1.42883 16.8237 1.37634C17.5596 1.65027 18.1631 2.1958 18.5132 2.89111Z" clip-rule="evenodd" fill="url(#paint_linear_35_12_0)" fill-opacity="1.000000" fill-rule="evenodd" mask="url(#mask_35_12)"/>
	<path id="Exclude" d="M3.34863 0.932739L15.7432 0.932739Q16.3481 0.932739 16.9106 1.14209L16.7456 1.61401Q16.7358 1.61072 16.7324 1.60974L16.8018 1.36951L16.9722 1.55237Q15.9385 2.51697 14.9009 3.61267Q14.2798 4.26904 13.1489 5.52673Q12.436 6.32019 12.0703 6.71802Q11.4609 7.38098 10.9287 7.92468L10.7363 8.12183L9.08545 6.15723Q8.71387 5.73108 8.2085 5.48511Q7.72021 5.24768 7.17676 5.21277Q6.63379 5.17798 6.11963 5.35107Q5.58789 5.5304 5.1626 5.90869Q4.7373 6.28711 4.49365 6.79858Q4.2583 7.29297 4.22363 7.84351Q4.18896 8.39392 4.36084 8.91467Q4.53857 9.45325 4.91309 9.88318L9.01367 14.5774Q9.41162 15.0339 9.95996 15.2834Q10.5083 15.5328 11.1094 15.5311Q11.7104 15.5294 12.2568 15.2769Q12.8042 15.0243 13.1992 14.5657L18.6528 8.30017L18.8413 8.46436L18.5913 8.46436L18.5913 4.43616Q18.5913 3.62842 18.2876 2.99988L18.7363 2.77881Q19.0913 3.48535 19.0913 4.28137L19.0913 16.6757Q19.0913 17.3568 18.8281 17.9792Q18.5742 18.5802 18.1108 19.0435Q17.6475 19.5068 17.0464 19.761Q16.4238 20.0243 15.7432 20.0243L3.34863 20.0243Q2.66748 20.0243 2.04492 19.761Q1.44434 19.5068 0.980957 19.0435Q0.517578 18.5802 0.263184 17.9792Q0 17.3568 0 16.6757L0 4.28137Q0 3.60022 0.263184 2.97778Q0.517578 2.37683 0.980957 1.91357Q1.44434 1.4502 2.04492 1.19604Q2.66748 0.932739 3.34863 0.932739ZM3.34863 1.43274Q2.76904 1.43274 2.23975 1.65649Q1.72852 1.87268 1.33447 2.26709Q0.939941 2.6615 0.723633 3.17261Q0.5 3.70166 0.5 4.28137L0.5 16.6757Q0.5 17.2554 0.723633 17.7844Q0.939941 18.2955 1.33447 18.6899Q1.72852 19.0844 2.23975 19.3005Q2.76904 19.5243 3.34863 19.5243L15.7432 19.5243Q16.3228 19.5243 16.8516 19.3005Q17.3628 19.0844 17.7573 18.6899Q18.1514 18.2955 18.3677 17.7844Q18.5913 17.2554 18.5913 16.6757L18.5913 4.28137Q18.5913 3.604 18.2896 3.00354L18.5132 2.89111L18.7383 2.78247Q19.0913 3.51404 19.0913 4.43616L19.0913 8.55786L13.5781 14.892Q13.1123 15.4327 12.4668 15.7308Q11.8208 16.0291 11.1104 16.0311Q10.4004 16.0332 9.75293 15.7386Q9.10547 15.4442 8.63672 14.9064L4.53613 10.2117Q4.09521 9.70569 3.88623 9.07129Q3.68408 8.45898 3.72461 7.81213Q3.76514 7.16528 4.04248 6.5835Q4.32959 5.98083 4.83008 5.53516Q5.33154 5.08911 5.95996 4.87732Q6.56738 4.67261 7.20898 4.71387Q7.85059 4.755 8.42725 5.03552Q9.02441 5.32593 9.46826 5.83557L10.9414 7.58911L10.75 7.74988L10.5713 7.57507Q11.0981 7.03687 11.7021 6.37964Q12.0659 5.98389 12.7773 5.1925Q13.9121 3.93005 14.5381 3.26892Q15.5859 2.16199 16.6313 1.18677L16.7349 1.09009L16.8711 1.12927Q16.8828 1.13281 16.9014 1.13879L16.8237 1.37634L16.7363 1.61072Q16.2583 1.43274 15.7432 1.43274L3.34863 1.43274ZM18.2876 2.99988Q17.98 2.36182 17.3867 1.94702Q17.0552 1.71533 16.7456 1.61401L16.8237 1.37634L16.9106 1.14209Q17.5059 1.36353 17.9805 1.78979Q18.4521 2.21387 18.7363 2.77881L18.2876 2.99988ZM18.7383 2.78247L18.5132 2.89111L18.2896 3.00354Q18.0479 2.52271 17.646 2.16174Q17.2422 1.79895 16.7363 1.61072L16.9014 1.13879Q17.2812 1.26331 17.6729 1.53723Q18.3735 2.02698 18.7383 2.78247Z" fill="#FFFFFF" fill-opacity="1.000000" fill-rule="nonzero"/>
	<path id="Vector 11 (Stroke)" d="M21.59 0.7C22.38 1.37 22.47 2.54 21.78 3.32L12.14 13.61C11.78 14.01 11.26 14.24 10.71 14.25C10.16 14.25 9.64 14.02 9.28 13.62L5.57 9.36C4.88 8.59 4.96 7.42 5.75 6.75C6.53 6.07 7.73 6.14 8.43 6.91L10.7 9.58L18.91 0.88C19.6 0.11 20.8 0.03 21.59 0.7Z" fill="url(#paint_linear_35_15_0)" fill-opacity="1.000000" fill-rule="evenodd"/>
	<path id="Vector 11 (Stroke)" d="M21.59 0.7C20.8 0.03 19.6 0.11 18.91 0.88L10.7 9.58L8.43 6.91C7.73 6.14 6.53 6.07 5.75 6.75C4.96 7.42 4.88 8.59 5.57 9.36L9.28 13.62C9.64 14.02 10.16 14.25 10.71 14.25C11.26 14.24 11.78 14.01 12.14 13.61L21.78 3.32C22.47 2.54 22.38 1.37 21.59 0.7Z" stroke="#FFFFFF" stroke-opacity="1.000000" stroke-width="0.500000"/>
</svg>
